<svg width={props.width} height={props.height} viewBox="0 0 78 78">
<path fill={props.fill} fill-rule="evenodd" d="M38.727 0C19.172 0 3.059 14.192 0 32.717h41.294l-10.76-10.671a6.728 6.728 0 0 1 0-9.588 6.865 6.865 0 0 1 9.668 0l21.357 21.234c1.475 1.462 2.075 3.412 1.912 5.308.163 1.896-.437 3.846-1.912 5.254L40.202 65.542a6.864 6.864 0 0 1-4.807 2.004c-1.748 0-3.496-.65-4.807-2.004a6.728 6.728 0 0 1 0-9.588l8.904-8.883H.328C4.097 64.729 19.828 78 38.727 78 60.412 78 78 60.558 78 39S60.412 0 38.727 0"></path>
</svg>